PathFileType	4	(X/Y/Z)	C:/Users/opensim2020/Desktop/walking_exp_matlab/subject03_walking12_straight_03.trc	
DataRate	CameraRate	NumFrames	NumMarkers	Units	OrigDataRate	OrigDataStartFrame	OrigNumFrames	
100.00	100.00	7	48	mm	100.00	1682	185	
Frame#	Time	LFHD			RFHD			LBHD			RBHD			C7			T10			CLAV			STRN			RBAK			LSHO			LUPA			LELB			LFRM			LWRA			LWRB			LFIN			RSHO			RUPA			RELB			RFRM			RWRA			RWRB			RFIN			LASI			RASI			LPSI			RPSI			LTHI			LKNE			LTIB			LANK			LHEE			LTOE			RTHI			RKNE			RTIB			RANK			RHEE			RTOE			*39			*40			*41			*42			*43			*44			*45			*46			*47			
		X1	Y1	Z1	X2	Y2	Z2	X3	Y3	Z3	X4	Y4	Z4	X5	Y5	Z5	X6	Y6	Z6	X7	Y7	Z7	X8	Y8	Z8	X9	Y9	Z9	X10	Y10	Z10	X11	Y11	Z11	X12	Y12	Z12	X13	Y13	Z13	X14	Y14	Z14	X15	Y15	Z15	X16	Y16	Z16	X17	Y17	Z17	X18	Y18	Z18	X19	Y19	Z19	X20	Y20	Z20	X21	Y21	Z21	X22	Y22	Z22	X23	Y23	Z23	X24	Y24	Z24	X25	Y25	Z25	X26	Y26	Z26	X27	Y27	Z27	X28	Y28	Z28	X29	Y29	Z29	X30	Y30	Z30	X31	Y31	Z31	X32	Y32	Z32	X33	Y33	Z33	X34	Y34	Z34	X35	Y35	Z35	X36	Y36	Z36	X37	Y37	Z37	X38	Y38	Z38	X39	Y39	Z39	X40	Y40	Z40	X41	Y41	Z41	X42	Y42	Z42	X43	Y43	Z43	X44	Y44	Z44	X45	Y45	Z45	X46	Y46	Z46	X47	Y47	Z47	X48	Y48	Z48	

24	0.230	-999.57825	-854.81982	1627.41370	-869.19440	-882.08362	1616.20898	-1026.09631	-966.51971	1556.76697	-897.07068	-989.19922	1546.10413	-988.07910	-980.98834	1408.79688	-1010.90820	-1029.12061	1103.87085	-964.69507	-858.35956	1333.38184	-973.83997	-822.76630	1164.33679	-913.10114	-1053.66333	1237.67969	-1123.48181	-868.62683	1380.81543	-1207.21301	-856.12885	1190.20349	-1224.74438	-841.14569	1068.69055	-1224.21143	-809.10986	942.15759	-1197.50781	-793.36450	823.02942	-1251.93030	-800.84814	831.10370	-1244.23193	-779.97308	750.01575	-816.68286	-938.09088	1352.84302	-754.55176	-974.90076	1131.54919	-743.30658	-974.79694	1018.36798	-742.61029	-971.98761	881.32562	-772.66583	-942.19324	784.70209	-739.09955	-984.07324	780.93011	-744.43579	-963.70544	709.44452	-1108.53259	-863.28809	930.11456	-876.25659	-897.56885	926.71271	-1082.63379	-1028.47205	964.51068	-934.61115	-1048.24158	965.78656	-1152.55652	-931.87341	627.63544	-1105.49414	-944.54230	453.08109	-1115.93823	-1018.48895	269.16461	-1076.81885	-1079.84082	64.78081	-1044.94885	-1128.99988	30.57121	-1045.00989	-936.10767	31.02822	-833.73236	-896.14709	637.77454	-853.08118	-819.94507	473.11572	-865.70331	-933.67078	320.39496	-922.84607	-1059.49744	148.88496	-981.17877	-1107.55811	141.29477	-926.69159	-957.40039	49.91829	-962.08289	-959.63733	1662.01868																								 
25	0.240	-1000.73596	-843.53552	1626.34863	-870.35419	-870.97644	1615.19946	-1027.39148	-955.25299	1555.81238	-898.40643	-978.12817	1545.20837	-989.14008	-970.04401	1407.66406	-1011.73224	-1018.24005	1102.81384	-965.73840	-847.47955	1332.27478	-974.63715	-812.03406	1163.12756	-914.25293	-1042.66614	1236.74536	-1124.30725	-857.85864	1379.66870	-1208.15967	-843.26648	1189.55640	-1225.04346	-826.05560	1068.24988	-1223.14685	-790.52612	942.67047	-1194.96851	-771.31317	824.46521	-1249.48633	-779.06598	831.66443	-1240.94763	-754.96051	751.84741	-817.68060	-927.25726	1351.93213	-755.46960	-965.06311	1130.78308	-744.17877	-965.43915	1017.62286	-743.53644	-963.37134	880.56610	-773.52789	-933.88165	783.72003	-739.99896	-975.98114	780.19916	-745.64264	-955.88287	708.35443	-1109.53613	-852.96234	928.72253	-877.14960	-886.20874	926.32135	-1082.57959	-1018.26984	963.12256	-934.56128	-1037.47754	964.72351	-1153.42773	-925.61493	626.90204	-1105.94983	-941.41321	452.28604	-1115.07080	-1021.67419	266.89175	-1076.70935	-1079.57556	64.91808	-1044.85498	-1128.95264	31.05217	-1045.19763	-935.73279	30.91848	-833.97864	-880.51337	638.88159	-854.14380	-801.55090	475.81223	-866.39105	-907.39423	316.69543	-923.23694	-1021.93304	137.32063	-981.99921	-1069.30676	126.03100	-923.86237	-913.88116	46.19504	-964.08923	-947.31482	1661.09094																								 
26	0.250	-1001.76416	-832.13403	1625.03809	-871.50903	-859.80750	1613.94238	-1028.61658	-943.92157	1554.66003	-899.68793	-967.01013	1544.10645	-990.09436	-959.09839	1406.42432	-1012.41809	-1007.31189	1101.50696	-966.85822	-836.38977	1331.04248	-975.58618	-801.11322	1161.84314	-915.29028	-1031.61658	1235.51477	-1125.28528	-847.00262	1378.36169	-1208.84839	-830.57202	1188.66309	-1225.39673	-811.08472	1067.63757	-1222.06946	-772.07202	943.06866	-1192.40540	-749.15472	826.07709	-1246.91089	-757.27997	832.26373	-1237.49878	-730.21252	753.71320	-818.70355	-916.26147	1350.69568	-756.30603	-954.95343	1129.75977	-745.00055	-955.81689	1016.54242	-744.35236	-954.43024	879.44214	-774.36096	-925.76215	782.46814	-740.83002	-967.63428	779.21674	-746.59344	-948.11823	707.20551	-1110.36292	-842.92438	927.22119	-877.77576	-874.89478	925.45544	-1082.53735	-1007.97485	961.47632	-934.45239	-1026.59741	963.31909	-1153.55688	-918.69000	625.57239	-1106.22778	-938.44049	451.05496	-1115.27795	-1019.93524	266.97952	-1076.72974	-1079.37720	65.11885	-1044.86609	-1128.75977	31.52355	-1045.37024	-935.10791	30.62355	-833.84662	-864.75140	639.52008	-855.11676	-783.52887	477.92554	-866.88446	-881.11334	312.71841	-923.07153	-983.84894	126.10305	-982.48065	-1029.84167	110.95661	-921.45648	-869.93536	42.75260	-964.77765	-936.76550	1659.87170																								 
27	0.260	-1002.83142	-820.66357	1623.55017	-872.48889	-848.34167	1612.46863	-1029.78674	-932.48761	1553.31506	-900.84973	-955.72668	1542.82056	-990.99261	-947.96490	1405.00317	-1012.90509	-996.31158	1099.97290	-967.65747	-825.33276	1329.58191	-976.49780	-790.08118	1160.37439	-916.22443	-1020.43945	1233.93457	-1126.09827	-836.11157	1376.80908	-1209.55334	-818.02124	1187.56250	-1225.77673	-796.38531	1066.77209	-1221.00903	-753.64539	943.55322	-1189.78174	-726.88495	828.02002	-1244.28137	-735.45044	832.99133	-1233.86975	-705.65289	755.64746	-819.65869	-905.09503	1349.25208	-757.14581	-944.59430	1128.45300	-745.73016	-945.91711	1015.24194	-745.11969	-945.32397	878.11395	-775.72760	-917.48761	780.90802	-741.58960	-959.08752	777.93317	-747.43707	-940.22571	705.84650	-1111.21082	-832.63043	925.39746	-878.31927	-863.43463	924.44934	-1082.40906	-997.54218	959.58661	-934.34760	-1015.55377	961.60455	-1152.77136	-911.43689	623.98401	-1106.58911	-935.50903	450.06207	-1115.55005	-1018.29645	266.94748	-1076.85205	-1079.13977	65.32117	-1044.93774	-1128.58704	32.04607	-1045.28699	-934.98431	30.20271	-833.85419	-849.52136	640.03687	-856.10773	-766.33813	479.64786	-867.07800	-854.81860	308.51553	-922.75403	-944.48798	114.78141	-982.12134	-989.47528	96.49848	-919.63293	-825.48724	39.91649	-965.98169	-925.23804	1658.45959																								 
28	0.270	-1003.83594	-809.13812	1621.95959	-873.50458	-836.92676	1610.90271	-1030.88794	-920.99915	1551.81128	-902.01154	-944.33502	1541.30383	-991.81091	-936.76306	1403.49500	-1013.23553	-985.15491	1098.20032	-968.50659	-814.15430	1327.94019	-977.52814	-778.81384	1158.77905	-917.00714	-1009.09424	1232.12158	-1127.03772	-825.16290	1375.07068	-1210.32678	-805.45428	1186.25452	-1226.23645	-781.72614	1065.81763	-1220.16199	-735.39984	944.08832	-1187.08093	-704.88995	829.98431	-1241.61072	-713.83667	833.82410	-1230.05359	-681.44910	757.73651	-820.47260	-893.78027	1347.60120	-757.98376	-933.73157	1126.97144	-746.44806	-935.70111	1013.68768	-745.87506	-935.95764	876.60712	-775.98175	-908.60767	779.22845	-742.28729	-950.29718	776.46289	-748.49335	-931.81146	704.09717	-1112.05615	-822.28314	923.48462	-878.80707	-851.85382	923.25458	-1082.31372	-987.03632	957.60187	-934.21661	-1004.37213	959.67938	-1153.61487	-905.44232	623.58105	-1106.98096	-932.36835	449.19016	-1115.67285	-1016.66028	266.87604	-1077.10388	-1079.09753	65.57691	-1045.07544	-1128.37683	32.68771	-1045.19324	-934.81128	29.90444	-833.72144	-834.53821	640.29895	-857.05829	-749.83508	480.79919	-866.97028	-828.35327	304.10568	-921.82599	-904.54541	104.60012	-981.07092	-948.45483	83.02337	-918.49109	-780.64215	37.75392	-967.14716	-913.56494	1656.91077																								 
29	0.280	-1004.87408	-797.55133	1620.21094	-874.45020	-825.54718	1609.25574	-1031.90649	-909.43225	1550.14783	-903.07074	-932.89264	1539.70679	-992.57422	-925.37189	1401.77551	-1013.42255	-973.96320	1096.33875	-969.45410	-802.78455	1326.19836	-978.38898	-767.49725	1157.05908	-917.66803	-997.59747	1230.07300	-1127.82495	-814.19995	1373.22607	-1210.98511	-792.90192	1184.77954	-1226.78528	-767.32336	1064.78638	-1219.15564	-717.35754	944.60016	-1184.34790	-683.04199	832.17596	-1238.88049	-692.32239	834.82288	-1226.17273	-657.49384	760.00580	-821.28613	-882.24597	1345.82629	-758.74225	-922.72137	1125.26855	-747.09113	-925.25586	1012.00714	-746.42371	-926.32782	874.89099	-776.84467	-899.43323	777.34540	-742.86877	-941.23444	774.84650	-749.32837	-923.54297	702.40326	-1112.82178	-811.62939	921.41718	-879.31592	-840.03271	921.96356	-1082.16980	-976.39520	955.47076	-934.05298	-993.01105	957.60004	-1152.88879	-898.36371	621.51398	-1107.39856	-929.21057	448.33063	-1115.82983	-1015.00275	266.91772	-1077.14600	-1078.91162	66.07813	-1045.16211	-1128.23718	33.45985	-1045.19299	-934.59918	29.61702	-833.46265	-819.46844	640.10431	-857.78925	-734.08289	481.40610	-866.55225	-801.86823	299.72171	-920.81787	-863.71649	94.95085	-979.80853	-906.36395	70.72214	-918.06921	-735.51495	36.86446	-968.29529	-901.79694	1655.21326																								 
30	0.290	-1005.64618	-785.85962	1618.24646	-875.34784	-813.95013	1607.44080	-1032.84961	-897.77899	1548.36157	-904.00763	-921.30542	1537.96265	-993.21051	-913.92560	1399.96619	-1013.51794	-962.60431	1094.30371	-970.24786	-791.23145	1324.36157	-979.31171	-756.08472	1155.22937	-918.20306	-985.91687	1227.90613	-1128.66150	-803.16632	1371.26843	-1211.56519	-780.35510	1183.23486	-1227.27234	-752.98645	1063.63538	-1218.32959	-699.58044	945.21179	-1181.58447	-661.38391	834.64551	-1236.04358	-671.12170	835.95770	-1222.20374	-633.91669	762.49408	-822.01996	-870.54041	1343.97803	-759.45044	-911.42676	1123.44006	-747.67358	-914.46661	1010.21216	-747.04041	-916.36090	873.04889	-777.67035	-890.60852	775.35400	-743.38000	-931.88220	773.12555	-750.09381	-914.61206	700.39911	-1113.49158	-800.99664	919.29785	-879.76080	-827.86749	920.48248	-1081.96240	-965.65662	953.23865	-933.83179	-981.47565	955.47058	-1152.72729	-891.93475	620.32434	-1107.72083	-926.01746	447.52390	-1116.00952	-1013.43042	267.17789	-1077.23010	-1078.78699	66.73583	-1045.16016	-1128.16638	34.44331	-1045.22913	-934.50415	29.42685	-833.21716	-804.73987	639.46942	-858.42480	-719.10864	481.47147	-865.92438	-775.53418	295.57666	-919.59027	-823.26105	86.88187	-978.19971	-864.63141	59.80713	-917.75824	-691.15094	37.29209	-970.13312	-889.60406	1653.20386																								 
